<svg width="250" height="100" viewBox="0 0 250 100" fill="none" xmlns="http://www.w3.org/2000/svg">
<path d="M125.256 47V19.3636H128.602V44.0312H141.449V47H125.256ZM149.977 19.3636V47H146.631V19.3636H149.977ZM175.579 28C175.283 27.0914 174.891 26.2772 174.405 25.5575C173.929 24.8288 173.357 24.2081 172.692 23.6953C172.035 23.1825 171.288 22.7912 170.452 22.5213C169.615 22.2514 168.697 22.1165 167.699 22.1165C166.061 22.1165 164.573 22.5393 163.232 23.3849C161.892 24.2306 160.826 25.4766 160.034 27.1229C159.242 28.7692 158.847 30.7888 158.847 33.1818C158.847 35.5748 159.247 37.5945 160.047 39.2408C160.848 40.8871 161.932 42.133 163.3 42.9787C164.667 43.8243 166.205 44.2472 167.915 44.2472C169.498 44.2472 170.892 43.9098 172.098 43.2351C173.312 42.5514 174.257 41.5888 174.932 40.3473C175.615 39.0968 175.957 37.6259 175.957 35.9347L176.983 36.1506H168.67V33.1818H179.196V36.1506C179.196 38.4266 178.71 40.4058 177.739 42.0881C176.776 43.7704 175.445 45.0748 173.744 46.0014C172.053 46.919 170.11 47.3778 167.915 47.3778C165.468 47.3778 163.318 46.8021 161.464 45.6506C159.62 44.4991 158.181 42.8617 157.146 40.7386C156.121 38.6155 155.608 36.0966 155.608 33.1818C155.608 30.9957 155.9 29.0301 156.485 27.2848C157.079 25.5305 157.915 24.0372 158.995 22.8047C160.074 21.5722 161.352 20.6276 162.827 19.9709C164.303 19.3142 165.927 18.9858 167.699 18.9858C169.156 18.9858 170.515 19.2062 171.774 19.647C173.043 20.0788 174.172 20.6951 175.161 21.4957C176.16 22.2874 176.992 23.2365 177.658 24.343C178.323 25.4406 178.782 26.6596 179.034 28H175.579ZM184.928 47V19.3636H188.274V31.6705H203.01V19.3636H206.357V47H203.01V34.6392H188.274V47H184.928ZM211.545 22.3324V19.3636H232.272V22.3324H223.582V47H220.236V22.3324H211.545Z" fill="black"/>
<path d="M125.73 87V59.3636H136.309C138.306 59.3636 139.966 59.6785 141.289 60.3082C142.62 60.929 143.614 61.7791 144.271 62.8587C144.937 63.9382 145.27 65.1617 145.27 66.5291C145.27 67.6536 145.054 68.6162 144.622 69.4169C144.19 70.2086 143.61 70.8518 142.881 71.3466C142.152 71.8414 141.338 72.1967 140.439 72.4126V72.6825C141.419 72.7365 142.359 73.0379 143.259 73.5866C144.167 74.1264 144.91 74.8911 145.485 75.8807C146.061 76.8703 146.349 78.0668 146.349 79.4702C146.349 80.9006 146.003 82.187 145.31 83.3295C144.617 84.4631 143.574 85.3582 142.179 86.0149C140.785 86.6716 139.031 87 136.917 87H125.73ZM130.736 82.8168H136.12C137.938 82.8168 139.247 82.4704 140.047 81.7777C140.857 81.076 141.262 80.1764 141.262 79.0788C141.262 78.2602 141.059 77.5225 140.654 76.8658C140.25 76.2 139.674 75.6783 138.927 75.3004C138.181 74.9136 137.29 74.7202 136.255 74.7202H130.736V82.8168ZM130.736 71.1172H135.689C136.552 71.1172 137.33 70.9598 138.023 70.6449C138.716 70.321 139.26 69.8667 139.656 69.282C140.061 68.6882 140.263 67.9865 140.263 67.1768C140.263 66.1063 139.885 65.2247 139.13 64.532C138.383 63.8393 137.272 63.4929 135.797 63.4929H130.736V71.1172ZM150.704 87V59.3636H168.679V63.5604H155.711V71.0632H167.748V75.2599H155.711V82.8033H168.787V87H150.704ZM177.335 87H171.992L181.721 59.3636H187.901L197.644 87H192.301L184.919 65.0312H184.703L177.335 87ZM177.511 76.1641H192.085V80.1854H177.511V76.1641ZM201.284 59.3636H207.411L215.615 79.3892H215.939L224.144 59.3636H230.27V87H225.466V68.0135H225.21L217.572 86.919H213.983L206.345 67.973H206.088V87H201.284V59.3636Z" fill="black"/>
<path d="M4.16667 54.1667V45.8333H29.1667V54.1667H4.16667ZM32.2917 38.125L23.5417 29.375L29.375 23.5417L38.125 32.2917L32.2917 38.125ZM45.8333 29.1667V4.16666H54.1667V29.1667H45.8333ZM67.7083 38.125L61.875 32.2917L70.625 23.5417L76.4583 29.375L67.7083 38.125ZM70.8333 54.1667V45.8333H95.8333V54.1667H70.8333ZM50 62.5C46.5278 62.5 43.5764 61.2847 41.1458 58.8542C38.7153 56.4236 37.5 53.4722 37.5 50C37.5 46.5278 38.7153 43.5764 41.1458 41.1458C43.5764 38.7153 46.5278 37.5 50 37.5C53.4722 37.5 56.4236 38.7153 58.8542 41.1458C61.2847 43.5764 62.5 46.5278 62.5 50C62.5 53.4722 61.2847 56.4236 58.8542 58.8542C56.4236 61.2847 53.4722 62.5 50 62.5ZM70.625 76.4583L61.875 67.7083L67.7083 61.875L76.4583 70.625L70.625 76.4583ZM29.375 76.4583L23.5417 70.625L32.2917 61.875L38.125 67.7083L29.375 76.4583ZM45.8333 95.8333V70.8333H54.1667V95.8333H45.8333Z" fill="black"/>
</svg>
